<?xml version="1.0" encoding="UTF-8" standalone="no"?>
<!-- Created with Inkscape (http://www.inkscape.org/) -->

<svg
   xmlns:dc="http://purl.org/dc/elements/1.1/"
   xmlns:cc="http://creativecommons.org/ns#"
   xmlns:rdf="http://www.w3.org/1999/02/22-rdf-syntax-ns#"
   xmlns:svg="http://www.w3.org/2000/svg"
   xmlns="http://www.w3.org/2000/svg"
   xmlns:xlink="http://www.w3.org/1999/xlink"
   xmlns:sodipodi="http://sodipodi.sourceforge.net/DTD/sodipodi-0.dtd"
   xmlns:inkscape="http://www.inkscape.org/namespaces/inkscape"
   width="270mm"
   height="270mm"
   viewBox="0 0 269.99999 270"
   version="1.1"
   id="svg8"
   inkscape:version="0.92.2 5c3e80d, 2017-08-06"
   sodipodi:docname="stdweb.inkscape.svg"
   inkscape:export-filename="/home/sam/Code/lug-wasm-and-rust/graphics/stdweb_logo.png"
   inkscape:export-xdpi="96.331856"
   inkscape:export-ydpi="96.331856">
  <defs
     id="defs2">
    <linearGradient
       inkscape:collect="always"
       id="linearGradient4642">
      <stop
         style="stop-color:#91bee2;stop-opacity:1;"
         offset="0"
         id="stop4638" />
      <stop
         style="stop-color:#d3b6d5;stop-opacity:1"
         offset="1"
         id="stop4640" />
    </linearGradient>
    <linearGradient
       inkscape:collect="always"
       xlink:href="#linearGradient4642"
       id="linearGradient4786"
       x1="-230.15791"
       y1="93.841148"
       x2="36.271301"
       y2="93.841148"
       gradientUnits="userSpaceOnUse"
       gradientTransform="translate(76.171816,-1.8708867)" />
  </defs>
  <sodipodi:namedview
     id="base"
     pagecolor="#ffffff"
     bordercolor="#666666"
     borderopacity="1.0"
     inkscape:pageopacity="0.0"
     inkscape:pageshadow="2"
     inkscape:zoom="0.98994949"
     inkscape:cx="757.99995"
     inkscape:cy="536.04453"
     inkscape:document-units="mm"
     inkscape:current-layer="layer1"
     showgrid="false"
     inkscape:window-width="3828"
     inkscape:window-height="2057"
     inkscape:window-x="0"
     inkscape:window-y="42"
     inkscape:window-maximized="0"
     fit-margin-top="0"
     fit-margin-left="0"
     fit-margin-right="0"
     fit-margin-bottom="0" />
  <metadata
     id="metadata5">
    <rdf:RDF>
      <cc:Work
         rdf:about="">
        <dc:format>image/svg+xml</dc:format>
        <dc:type
           rdf:resource="http://purl.org/dc/dcmitype/StillImage" />
        <dc:title></dc:title>
      </cc:Work>
    </rdf:RDF>
  </metadata>
  <g
     inkscape:label="Layer 1"
     inkscape:groupmode="layer"
     id="layer1"
     style="display:inline"
     transform="translate(155.32245,43.866977)">
    <path
       style="fill:url(#linearGradient4786);fill-opacity:1;stroke-width:0.54042554"
       d="m -22.550992,223.72725 c -0.665,-0.46578 -2.454492,-2.7153 -3.976652,-4.99893 -3.33834,-5.00837 -5.23486,-7.12441 -6.38532,-7.12441 -0.47314,0 -2.43397,1.60802 -4.3574,3.57337 -4.31969,4.41382 -7.34794,6.69472 -8.88829,6.69472 -0.64668,0 -1.6888,-0.54718 -2.31583,-1.21596 -0.62703,-0.66878 -2.12188,-3.62134 -3.3219,-6.56124 -2.19789,-5.3846 -3.44603,-7.35472 -4.65945,-7.35472 -0.36251,0 -3.24751,1.71873 -6.41113,3.81941 -5.95221,3.95233 -8.26891,4.68428 -9.84324,3.10994 -0.91848,-0.91848 -1.86378,-4.24965 -2.94349,-10.37266 -0.57299,-3.24934 -1.02548,-4.43437 -1.91605,-5.01789 -1.05724,-0.69274 -1.8116,-0.50309 -8.09432,2.0349 -6.42627,2.59599 -7.02781,2.74306 -8.29961,2.02922 -2.27411,-1.27643 -2.7213,-2.90653 -2.72992,-9.95122 -0.005,-4.33467 -0.22481,-6.72896 -0.65648,-7.16063 -0.91579,-0.9158 -2.940846,-0.80991 -8.268506,0.43234 -6.41911,1.49674 -8.02447,1.42803 -9.46968,-0.40532 -1.31397,-1.66688 -1.29435,-2.08617 0.48455,-10.35486 1.30186,-6.05134 1.02209,-7.05698 -1.9775,-7.10805 -6.07046,-0.10336 -13.63014,-0.91716 -14.39179,-1.54928 -1.44735,-1.20118 -0.96645,-4.32366 1.58632,-10.29997 1.33171,-3.11769 2.4213,-5.96959 2.4213,-6.33754 0,-1.28157 -2.55731,-2.32689 -8.25234,-3.37322 -3.15293,-0.57927 -6.21917,-1.35709 -6.81385,-1.72848 -1.4959,-0.9342 -2.4083,-2.8178 -1.99527,-4.11913 0.19022,-0.59936 2.03975,-3.60141 4.11004,-6.67122 2.0703,-3.06982 3.76418,-5.8538 3.76418,-6.18664 0,-1.1692 -2.02763,-2.41336 -7.86223,-4.82432 -3.23898,-1.33841 -5.95026,-2.43347 -6.02507,-2.43347 -0.0748,0 -0.51442,-0.73176 -0.97692,-1.62615 -0.66664,-1.28913 -0.71138,-1.87716 -0.2159,-2.83724 0.34377,-0.66609 2.78306,-3.42784 5.42066,-6.13722 2.6376,-2.70937 4.79563,-5.28129 4.79563,-5.71536 0,-1.08598 -1.63003,-2.46621 -7.1994,-6.096078 -7.71533,-5.028524 -7.70184,-6.825526 0.09,-11.989784 5.8969,-3.90833 7.1094,-4.934426 7.1094,-6.016417 0,-0.43982 -2.15803,-3.016439 -4.79563,-5.725814 -2.6376,-2.709381 -5.07689,-5.471128 -5.42066,-6.137219 -0.49313,-0.955515 -0.45378,-1.542218 0.18647,-2.780327 0.61368,-1.186726 1.83625,-1.991344 5.01534,-3.300795 7.32957,-3.019001 8.51048,-3.590555 9.23673,-4.470514 0.59134,-0.716491 0.55543,-1.158597 -0.21566,-2.654851 -0.50883,-0.987358 -2.34805,-3.9138 -4.08715,-6.503195 -1.73909,-2.589395 -3.15426,-5.142906 -3.1448,-5.674468 0.0183,-1.027371 0.77963,-2.155196 2.20685,-3.269067 0.48014,-0.374726 3.50028,-1.164017 6.71142,-1.753989 5.88674,-1.081548 8.35816,-2.105098 8.35816,-3.461582 0,-0.405854 -1.09039,-3.25775 -2.42309,-6.337538 -3.82995,-8.850809 -3.19723,-11.270662 2.94865,-11.277325 1.64296,-0.0016 5.00473,-0.16029 7.47059,-0.352233 3.55331,-0.276596 4.59257,-0.552996 5.00969,-1.332382 0.37192,-0.694944 0.12685,-2.752906 -0.83552,-7.0161387 -0.749,-3.3180151 -1.36181,-6.4536577 -1.36181,-6.96809627 0,-0.5144382 0.50403,-1.57611773 1.12007,-2.35928733 1.39403,-1.7722153 3.00747,-1.8235347 9.60112,-0.3053853 2.67198,0.6152081 5.66944,1.0407932 6.661028,0.94574483 l 1.802878,-0.17281523 0.27021,-7.7490774 c 0.26771,-7.6772196 0.28428,-7.7611626 1.78652,-9.0521286 0.83397,-0.716678 1.80674,-1.300819 2.1617,-1.298091 0.35497,0.0027 3.31882,1.09709 6.58634,2.431915 6.11065,2.496287 8.40328,2.927676 9.30801,1.751423 0.28578,-0.371542 0.83106,-2.499468 1.21173,-4.728723 1.53999,-9.01819 2.35584,-10.808511 4.92542,-10.808511 1.96863,0 3.19964,0.618725 9.04742,4.547396 2.47121,1.660209 4.82467,3.018561 5.22993,3.018561 1.20054,0 2.66142,-2.297239 4.86834,-7.655507 1.14274,-2.774471 2.5646,-5.591674 3.15971,-6.260451 2.07299,-2.329608 3.61325,-1.691515 9.45765,3.918086 2.94192,2.823723 5.6993,5.134042 6.12751,5.134042 1.07245,0 3.03459,-2.220064 6.32607,-7.157649 1.5345,-2.301919 3.392912,-4.580351 4.129802,-5.06318 2.16621,-1.419353 3.92041,-0.273381 7.30094,4.7695 4.03642,6.021307 5.2959595,7.451329 6.5630193,7.451329 0.63903,0 3.26493,-2.111641 6.38436,-5.134042 5.42545,-5.2567 6.79124,-5.947031 8.82094,-4.458511 0.50662,0.371542 2.02324,3.343632 3.3702597,6.604643 1.347021,3.261011 2.840621,6.361702 3.319101,6.890426 0.47849,0.528723 1.25788,0.961067 1.73197,0.960765 0.47409,-3.02e-4 3.36489,-1.702643 6.42399,-3.782979 5.50755,-3.745395 7.23287,-4.348137 9.29195,-3.246153 1.20147,0.64301 1.86828,2.551534 3.01232,8.621832 0.96239,5.106405 2.02606,7.595084 3.24617,7.595084 0.45031,0 3.47407,-1.094362 6.71947,-2.431915 3.2454,-1.337553 6.6025,-2.431915 7.46022,-2.431915 2.75514,0 3.20129,1.148885 3.63115,9.3504236 0.2815,5.3708998 0.61,7.6780003 1.17349,8.2414896 0.43041,0.43040573 1.05371,0.78255623 1.38513,0.78255623 0.33141,0 3.48904,-0.6408572 7.01696,-1.42412673 5.134089,-1.1398737 6.680229,-1.3030012 7.746269,-0.8172802 2.37753,1.0832765 2.54152,2.73801263 1.00867,10.1784587 -1.32078,6.4111488 -1.34456,6.8121388 -0.46173,7.7876618 0.8139,0.899343 1.72438,1.028478 7.25146,1.028478 3.47639,0 7.051711,0.254827 7.945141,0.56628 0.89345,0.311458 1.94099,1.157748 2.32787,1.880648 0.62588,1.169476 0.48127,1.836831 -1.31191,6.053934 -1.10843,2.606758 -2.41576,5.774284 -2.905161,7.038945 -0.85887,2.219339 -0.85086,2.338357 0.229921,3.419143 0.77091,0.770901 2.77137,1.439629 6.42102,2.146462 6.92191,1.340569 8.792562,1.990063 9.491122,3.295321 0.78961,1.475405 0.072,3.316845 -3.166122,8.124212 -3.46017,5.137047 -4.50633,7.214421 -4.12873,8.198444 0.16893,0.440199 3.13839,2.046522 6.598822,3.569603 3.46043,1.523087 6.72518,3.161549 7.255,3.641036 0.52983,0.479482 0.96332,1.610009 0.96332,2.512271 0,1.345195 -0.92412,2.581089 -5.13404,6.866074 -2.82372,2.874075 -5.134042,5.578943 -5.134042,6.010819 0,1.064616 2.312612,3.135895 6.214892,5.566334 4.20486,2.618897 6.75532,5.072894 6.75532,6.499839 0,1.426945 -2.55046,3.880942 -6.75532,6.499844 -3.81842,2.378207 -6.214892,4.497847 -6.214892,5.496977 0,0.39375 2.322192,3.19243 5.160412,6.21931 4.45928,4.75567 5.13848,5.72537 4.99894,7.13702 -0.20115,2.03491 -2.02235,3.32335 -8.10732,5.73562 -2.466172,0.97766 -4.909532,2.14167 -5.429692,2.58667 -1.67126,1.42978 -1.10072,3.38917 2.51196,8.62679 1.901702,2.75709 3.609922,5.61958 3.796032,6.36109 0.18611,0.74152 0.0912,1.81013 -0.21098,2.37469 -0.67193,1.25553 -2.597902,1.91604 -9.464682,3.24593 -3.53383,0.68441 -5.65821,1.38366 -6.37191,2.09736 -1.014851,1.01485 -1.026931,1.19304 -0.231761,3.41914 0.461381,1.29167 1.746601,4.4813 2.856051,7.08806 1.79495,4.21742 1.93968,4.88437 1.31375,6.05393 -0.38688,0.7229 -1.43442,1.56919 -2.32787,1.88065 -0.89343,0.31145 -4.468751,0.56628 -7.945141,0.56628 -5.56935,0 -6.43349,0.12464 -7.26957,1.04849 -0.9061,1.00122 -0.89659,1.28887 0.21086,6.37927 0.63786,2.93191 1.20155,6.37913 1.25265,7.66046 0.0739,1.8541 -0.16393,2.53767 -1.16514,3.3484 -0.69192,0.56028 -1.68479,1.0187 -2.20638,1.0187 -0.5216,0 -3.6803,-0.6167 -7.019349,-1.37045 -3.33904,-0.75374 -6.51075,-1.23087 -7.04823,-1.06027 -0.53749,0.17059 -1.14086,0.72649 -1.34084,1.23533 -0.19997,0.50885 -0.5022,4.151 -0.67162,8.09367 -0.18223,4.24087 -0.57302,7.53088 -0.95686,8.05581 -0.36665,0.50143 -1.34487,0.86752 -2.24936,0.84181 -0.8803,-0.025 -4.35993,-1.16154 -7.7325,-2.52558 -3.37257,-1.36403 -6.54273,-2.34968 -7.04479,-2.19033 -1.27877,0.40586 -1.97817,2.19541 -3.00074,7.67803 -1.11013,5.95196 -2.01301,8.15187 -3.59148,8.75082 -1.66818,0.63297 -3.49654,-0.17811 -9.47008,-4.20106 -2.70486,-1.82162 -5.26581,-3.31204 -5.691,-3.31204 -1.33736,0 -2.43869,1.74264 -4.962161,7.85174 -1.3470197,3.26101 -2.8636397,6.2331 -3.3702597,6.60465 -1.96191,1.43879 -3.32534,0.75831 -8.93307,-4.45851 -3.03532,-2.82373 -5.91176,-5.13405 -6.39209,-5.13405 -1.1311498,0 -2.4325993,1.47119 -5.9012293,6.67086 -1.55526,2.33141 -3.29134,4.70253 -3.85796,5.26915 -1.2517,1.2517 -2.5533,1.30905 -4.16049,0.18333 z m 13.7742496,-29.45119 c 3.8831197,-0.32247 9.76581977,-1.27164 13.4049697,-2.16289 7.6798907,-1.88085 17.3339807,-5.61546 17.8310507,-6.89782 0.1925,-0.49661 0.54714,-1.87569 0.78809,-3.06463 0.24096,-1.18894 0.84263,-4.05191 1.33705,-6.36217 0.49442,-2.31024 0.76996,-4.40916 0.61231,-4.66424 -0.50111,-0.81081 -14.952121,-5.3514 -20.6069707,-6.47482 -2.9935,-0.59471 -8.87227,-1.33935 -13.06394,-1.65475 -10.8558293,-0.81684 -24.9718013,0.27763 -38.4661113,2.98244 -8.21296,1.64622 -20.15525,4.77196 -20.36925,5.33139 -0.12078,0.31574 0.46851,3.61396 1.30953,7.32938 1.51709,6.70215 1.54474,6.76309 3.51176,7.74257 2.83892,1.41364 12.04523,4.5146 17.26204,5.81438 2.45229,0.61098 6.52582,1.43185 9.05231,1.82414 5.74843,0.89257 18.323532,1.01054 27.3971616,0.25702 z M 43.264688,183.71053 c 3.05627,-1.22288 4.32784,-3.21526 4.32535,-6.77728 -0.003,-4.92272 -2.86671,-8.0254 -7.402,-8.02094 -5.95204,0.006 -9.779,7.03591 -6.50117,11.94253 1.31593,1.96983 4.23353,3.72559 6.19319,3.72696 0.66276,4.6e-4 2.18584,-0.39161 3.38463,-0.87127 z m -120.821362,-1.49249 c 2.46134,-1.87736 3.44214,-4.87902 2.55823,-7.82925 -0.80954,-2.702 -2.9312,-4.78939 -5.59787,-5.50745 -3.67996,-0.99091 -6.67346,0.62826 -8.74629,4.73084 -0.48061,0.95125 -0.87385,2.23769 -0.87385,2.85876 0,1.88154 2.00639,5.20236 3.89432,6.44556 2.42376,1.59606 6.14606,1.29945 8.76546,-0.69846 z M 57.759378,161.10565 c 3.70142,-2.72483 5.75943,-5.30728 11.868739,-14.89323 8.865,-13.90984 11.54328,-21.07392 13.63749,-36.47872 0.32723,-2.40713 0.51616,-9.71293 0.42624,-16.482977 l -0.16149,-12.159575 -5.67447,-2.803074 c -3.12096,-1.541694 -6.09258,-2.818449 -6.60361,-2.837234 -1.05218,-0.03869 -3.55342,3.646446 -7.493699,11.040624 -7.6451,14.346496 -13.20695,31.856886 -16.9952,53.506066 -1.39727,7.98515 -2.9234,21.04807 -2.50789,21.46636 0.54542,0.54908 6.51093,1.94312 8.54626,1.99713 1.20313,0.0319 2.6458,-0.65349 4.95763,-2.35537 z m -143.922642,0.25677 c 2.97234,-0.64168 5.6182,-1.37755 5.87969,-1.63526 0.26148,-0.25772 0.3563,-4.55912 0.21072,-9.55868 -0.21191,-7.27675 -0.55794,-10.3712 -1.73465,-15.51208 -2.48843,-10.87163 -6.63044,-21.68324 -13.17132,-34.38015 -3.862148,-7.497059 -14.857386,-26.480847 -15.337466,-26.480847 -0.75048,0 -13.68495,6.08878 -14.00476,6.592603 -0.70558,1.111569 -0.95818,10.150197 -0.47152,16.872118 0.54444,7.519986 1.17604,11.936316 2.51802,17.606586 1.43722,6.07271 5.53607,15.44415 12.11471,27.69859 4.16717,7.76243 8.0172,13.74686 11.505056,17.88325 2.15767,2.55888 2.28217,2.62189 4.65213,2.3549 1.33933,-0.15089 4.86705,-0.79935 7.83939,-1.44103 z m 108.355322,-4.86291 c 0,-0.89101 -8.04962,-13.75836 -18.0227107,-28.80939 -2.72104,-4.10649 -2.87488,-4.2357 -6.83686,-5.74247 -5.85763,-2.22769 -10.6108993,-2.9652 -16.6999993,-2.59115 -4.833232,0.2969 -15.813762,2.69606 -19.014922,4.1546 -0.73703,0.33581 -4.28133,4.54743 -7.87622,9.35914 -7.17119,9.59852 -15.85567,22.14644 -15.85567,22.9093 0,0.28177 11.92298,0.40534 28.50744,0.29545 15.679102,-0.1039 33.61447134,0.0293 39.8563913,0.29592 6.2419107,0.26665 12.3825007,0.52199 13.6457407,0.56742 1.26325,0.0454 2.29681,-0.15204 2.29681,-0.43882 z m 15.97387,-24.13218 c 3.4143,-11.25956 6.42897,-21.07991 6.69927,-21.823 0.27029,-0.74308 2.12113,-6.45808 4.11298,-12.69999 1.99185,-6.241915 4.70233,-14.349768 6.02331,-18.017453 1.32096,-3.667684 2.27103,-6.799245 2.11126,-6.959027 -0.3552,-0.35519 -6.88425,1.192962 -21.13984,5.012625 l -10.80851,2.896049 -2.66153,2.859435 c -3.09092,3.320763 -6.40283,8.297796 -9.10738,13.686288 -2.21077,4.404703 -4.9380807,12.940963 -5.8403607,18.279923 l -0.62646,3.70679 5.3348907,7.89471 c 5.79496,8.57555 17.83458,24.99345 18.77276,25.59957 0.32004,0.20676 0.65837,0.29945 0.75184,0.20597 0.0935,-0.0935 2.96348,-9.38233 6.37777,-20.64189 z m -101.289802,10.8689 c 2.78451,-3.56893 7.82955,-10.20158 11.21121,-14.73924 l 6.14846,-8.25028 -0.35873,-4.44587 c -0.64048,-7.93763 -2.13711,-13.73452 -5.05456,-19.577777 -2.13638,-4.278884 -6.29372,-9.996051 -9.7568,-13.417523 l -3.18773,-3.149438 -6.96743,-1.547725 c -7.00575,-1.556236 -19.11442,-3.772549 -20.61106,-3.772549 -0.55976,0 -0.71491,0.369008 -0.51124,1.215958 0.16082,0.668777 2.635,8.025319 5.49818,16.347873 5.19373,15.096841 9.0179,27.177401 12.48845,39.451061 1.00857,3.56681 2.04979,7.21468 2.31382,8.10638 0.26404,0.8917 1.03176,3.63583 1.70605,6.09806 0.67429,2.46223 1.40433,4.40776 1.62231,4.3234 0.21798,-0.0844 2.67456,-3.07341 5.45907,-6.64233 z m 57.7426313,-29.04402 c -0.0204,-1.18698 -10.4920393,-15.245537 -11.5004393,-15.439747 -0.53332,-0.1027 -1.36054,0.13734 -1.83826,0.53342 -1.19013,0.986757 -13.130552,14.866467 -13.130552,15.263137 0,0.17529 5.95819,0.31872 13.240422,0.31872 10.2382393,0 13.2377993,-0.15317 13.2288293,-0.67553 z M -32.683234,101.55525 c 3.45867,-4.943993 6.2161,-9.356519 6.12763,-9.805602 -0.10719,-0.544101 -3.93278,-2.052066 -11.46646,-4.519839 -6.21809,-2.036826 -11.41294,-3.596002 -11.54411,-3.464825 -0.13117,0.131172 1.09669,3.474288 2.72859,7.429139 2.40834,5.836525 5.97832,15.146707 7.16079,18.674677 0.12453,0.37154 0.33411,0.67553 0.46574,0.67553 0.13164,0 3.06916,-4.04509 6.52782,-8.98908 z m 36.5951813,3.9763 c 1.09222,-2.44457 3.61561,-8.041583 5.60754,-12.437832 1.9919207,-4.396248 3.4854507,-8.12941 3.3189407,-8.295916 -0.16651,-0.166505 -3.9058607,0.831094 -8.3096607,2.216891 -11.6274,3.65893 -12.57529,4.055786 -12.9144,5.406882 -0.2108,0.839902 0.97859,3.342808 4.13666,8.705055 4.69571007,7.97305 5.2964601,8.88546 5.83592,8.86343 0.18654,-0.008 1.23278,-2.01395 2.325,-4.45851 z M -23.820082,80.237557 c 0.57584,-0.618091 1.18666,-2.138037 1.35739,-3.37766 0.50009,-3.631044 1.07182,-23.06024 0.67858,-23.06024 -0.19751,0 -6.309582,5.013728 -13.582362,11.141619 -7.2728,6.127891 -13.09045,11.356508 -12.92813,11.619149 0.16232,0.262642 0.77507,0.477531 1.36168,0.477531 0.90171,0 8.67831,1.690846 16.97392,3.690593 3.48783,0.840778 5.01173,0.718896 6.138922,-0.490992 z M 3.1624073,78.557465 c 5.90813,-1.154278 8.7511507,-1.933648 8.6468007,-2.370387 -0.13146,-0.550294 -21.7966105,-19.563875 -24.81485,-21.777804 -0.93401,-0.685114 -1.01131,-0.602986 -1.01738,1.080851 -0.004,1.002262 0.27352,6.564533 0.61585,12.360597 0.55896,9.463883 0.7387,10.667492 1.76295,11.80551 1.35199,1.502156 1.58082,1.485175 14.8066293,-1.098767 z M 31.515358,71.648573 c 9.89601,-2.841547 26.34478,-8.710114 26.34478,-9.399254 0,-0.129556 -2.8575,-1.887004 -6.35,-3.905439 C 36.129408,49.45482 14.604208,35.883875 -3.3748127,23.740669 -9.2626624,19.763964 -14.336222,16.510294 -14.649402,16.510294 c -0.39404,0 -0.44993,4.119383 -0.18145,13.375532 0.37421,12.901466 0.4363,13.465465 1.75183,15.912982 2.76564,5.145435 9.2591093,11.165965 18.2476793,16.918622 13.7209307,8.781364 18.2271707,11.255405 19.7255307,10.829831 0.44585,-0.126632 3.42538,-0.981045 6.62117,-1.898688 z m -89.558832,0.472532 c 3.25821,-1.219054 19.31975,-10.700118 23.76106,-14.026059 5.14284,-3.851289 9.47594,-8.660741 11.599372,-12.874515 1.06924,-2.121835 1.15793,-2.89754 0.86497,-7.565957 -0.84798,-13.512931 -1.59514,-21.14428 -2.070182,-21.14428 -0.28626,0 -3.83641,2.641411 -7.88923,5.8698 -13.15718,10.480743 -37.57437,28.212662 -51.41344,37.336775 -3.71542,2.449581 -6.82106,4.734619 -6.90143,5.07786 -0.0831,0.354886 1.31557,1.012876 3.24256,1.525448 3.26104,0.867426 11.05394,3.033895 20.14185,5.599555 2.37787,0.671311 4.61827,1.246367 4.97867,1.277906 0.36039,0.03151 2.019,-0.452903 3.6858,-1.076533 z M 82.536787,66.712402 c 1.72001,-1.585793 2.88505,-4.203209 2.88505,-6.481599 0,-3.60993 -3.9676,-7.511997 -7.63818,-7.511997 -1.00987,0 -2.6835,0.450904 -3.71918,1.002003 -2.3013,1.224556 -4.29411,4.537927 -4.30609,7.159569 -0.0112,2.465032 1.85781,5.31488 4.32529,6.594953 2.58349,1.340256 6.56132,0.98124 8.45311,-0.762929 z m -198.335327,0.0032 c 1.01033,-0.624424 2.34112,-2.123542 2.95732,-3.331377 1.82554,-3.578358 0.65043,-7.419119 -2.9397,-9.608156 -3.5209,-2.146835 -8.39361,-0.839719 -10.64696,2.856073 -1.35704,2.225721 -1.3631,4.217741 -0.0208,6.848776 2.08785,4.092529 6.89821,5.553532 10.65019,3.234684 z M -83.461134,49.99631 c 12.26206,-6.039607 22.78373,-13.555354 33.90878,-24.221393 9.53131,-9.138061 21.85013,-23.1760225 21.37964,-24.3632574 -0.0908,-0.2290248 -2.70028,-3.1269072 -5.79894,-6.4397386 -4.37386,-4.6761664 -5.9476,-6.023329 -7.0364,-6.023329 -0.77135,0 -3.22151,0.499152 -5.44479,1.1092266 -12.31842,3.3802126 -22.44091,7.9333298 -32.23206,14.4980401 -6.78779,4.5510381 -15.41486,11.9003283 -19.9741,17.0156823 -2.898266,3.25179 -5.875466,8.778457 -7.809006,14.496143 -0.93206,2.756176 -1.10733,4.292222 -0.91334,8.004313 0.16006,3.062689 0.73178,6.031506 1.71548,8.908073 0.81148,2.372954 1.71103,4.598356 1.999,4.945342 0.38785,0.467322 2.09418,0.0043 6.581686,-1.785826 3.33195,-1.329187 9.46277,-4.093658 13.62405,-6.143276 z m 150.618221,-3.492398 3.20217,-7.025532 -1.12753,-2.177888 C 65.931208,30.92533 53.180288,16.55603 44.889928,9.8691878 35.236458,2.0828768 24.203758,-3.9057864 12.464398,-7.7317307 3.8246973,-10.547472 0.89431737,-11.248715 -0.63185266,-10.865671 -2.0000927,-10.522265 -11.483712,-2.0667636 -11.760602,-0.94338967 -12.218962,0.91622073 -2.2712527,11.916834 8.1409973,21.064687 23.821408,34.840978 34.077268,41.338147 53.536738,49.823271 c 4.90436,2.138502 9.25478,3.847235 9.6676,3.797181 0.41282,-0.05004 2.19156,-3.252497 3.952749,-7.11654 z M -17.945702,-7.2488772 c 2.90319,-1.3178959 4.46497,-3.7999758 4.46765,-7.1002718 0.003,-3.358951 -1.70556,-5.823288 -4.97645,-7.178871 -2.42517,-1.005085 -2.61386,-1.009094 -4.97917,-0.105773 -3.168972,1.210239 -4.768472,3.441742 -5.031882,7.020096 -0.15293,2.07746 0.064,3.175938 0.88542,4.483345 1.14883,1.8285534 4.450862,3.8868192 6.267932,3.9070198 0.59447,0.00661 2.10939,-0.4548865 3.3665,-1.025545 z"
       id="path4778"
       inkscape:connector-curvature="0" />
  </g>
</svg>
